<?xml version="1.0" encoding="UTF-8"?>
<svg version="1.1" xmlns="http://www.w3.org/2000/svg" width="1583" height="103">
<path d="M0 0 C522.39 0 1044.78 0 1583 0 C1583 33.99 1583 67.98 1583 103 C1060.61 103 538.22 103 0 103 C0 69.01 0 35.02 0 0 Z " fill="#010101" transform="translate(0,0)"/>
<path d="M0 0 C1.56795739 0.00084767 3.13591598 0.00036841 4.70387268 -0.00132751 C8.93259058 -0.00218344 13.1610499 0.01537662 17.38970804 0.03639436 C21.81927056 0.05522871 26.2488399 0.0569169 30.67843628 0.06047058 C39.05403629 0.06977128 47.42951795 0.09435814 55.80506599 0.12451905 C65.3456075 0.15812477 74.88615486 0.17456455 84.42674088 0.18960536 C104.04090748 0.22090958 123.65496775 0.27363141 143.26904297 0.34057617 C142.02055018 2.85354197 140.77029024 5.36560332 139.51904297 7.87719727 C138.99697266 8.92870216 138.99697266 8.92870216 138.46435547 10.00144958 C134.92602438 17.09730845 131.12436295 24.03804808 127.26904297 30.96557617 C126.60210052 32.17115281 125.93543404 33.37688217 125.26904297 34.58276367 C123.61692 37.56817003 121.95506951 40.54798081 120.28662109 43.52429199 C119.59117714 44.76559605 118.8972345 46.00774212 118.20458984 47.25061035 C117.14747887 49.14528033 116.08407011 51.03628444 115.01904297 52.92651367 C114.08318359 54.59399658 114.08318359 54.59399658 113.12841797 56.29516602 C106.48320763 67.17914104 96.35782042 72.89416879 84.26904297 76.34057617 C79.23982769 77.00005836 74.25791579 77.0376196 69.19482422 77.00341797 C67.73304449 77.01185391 66.27127562 77.022389 64.80952454 77.03483582 C60.88220089 77.06163573 56.95551875 77.05725366 53.02814484 77.04513526 C49.73983313 77.03795767 46.45163661 77.04653296 43.16333389 77.05504066 C35.40988832 77.07490914 27.65675183 77.0695112 19.90332031 77.04736328 C11.91341132 77.02492748 3.9243073 77.04270383 -4.06552601 77.08041257 C-10.94485265 77.11163547 -17.82392994 77.11956826 -24.7033186 77.10845882 C-28.80420658 77.10197722 -32.90462871 77.10395001 -37.00546265 77.12778282 C-40.85385225 77.14901726 -44.70110001 77.14108239 -48.5494175 77.11068916 C-49.95992038 77.10435915 -51.37051186 77.10822925 -52.78095055 77.12310028 C-63.38424961 77.22583686 -63.38424961 77.22583686 -66.70449352 75.0432682 C-68.7789557 72.69291243 -69.73496158 70.96122198 -69.71459961 67.80541992 C-68.61943289 65.06111533 -67.40400319 62.50098155 -65.99267578 59.90307617 C-65.42564941 58.8530542 -64.85862305 57.80303223 -64.27441406 56.72119141 C-63.66194824 55.60558838 -63.04948242 54.48998535 -62.41845703 53.34057617 C-61.79052246 52.18952393 -61.16258789 51.03847168 -60.515625 49.85253906 C-59.22316965 47.48763512 -57.92499089 45.12599942 -56.62207031 42.7668457 C-55.41803211 40.58540081 -54.21803779 38.40171543 -53.0234375 36.21508789 C-51.48077278 33.39521851 -49.92174178 30.58515991 -48.35595703 27.77807617 C-47.90567139 26.9537207 -47.45538574 26.12936523 -46.99145508 25.2800293 C-40.42686961 13.67208052 -31.8037877 4.78286341 -18.83026505 0.98602867 C-12.6268225 -0.30588148 -6.3068633 -0.0480592 0 0 Z " fill="#FDFDFD" transform="translate(637.73095703125,13.659423828125)"/>
<path d="M0 0 C7.43796542 -0.12692283 14.87565091 -0.21440352 22.31445312 -0.2746582 C24.84418169 -0.29978044 27.37383782 -0.33388421 29.90332031 -0.37719727 C33.54249963 -0.43794555 37.18071812 -0.46623385 40.8203125 -0.48828125 C41.94865509 -0.51408768 43.07699768 -0.5398941 44.23953247 -0.56648254 C53.01526265 -0.56960724 53.01526265 -0.56960724 56.76123047 2.40551758 C59 5 59 5 59 7 C59.52464844 7.2165625 60.04929687 7.433125 60.58984375 7.65625 C63.946899 9.52793072 66.67171391 11.98316262 69.5625 14.5 C74.12421641 18.44897412 74.12421641 18.44897412 79 22 C79 22.66 79 23.32 79 24 C79.52464844 24.2165625 80.04929687 24.433125 80.58984375 24.65625 C83.946899 26.52793072 86.67171391 28.98316262 89.5625 31.5 C94.12421641 35.44897412 94.12421641 35.44897412 99 39 C99 39.66 99 40.32 99 41 C99.804375 41.3403125 99.804375 41.3403125 100.625 41.6875 C103.78500863 43.43382056 106.2676983 45.6402849 109 48 C112.21854266 44.23205918 114.62358544 40.27617507 116.8984375 35.8984375 C117.25588043 35.22132721 117.61332336 34.54421692 117.9815979 33.84658813 C119.11773708 31.69198233 120.24659587 29.53366513 121.375 27.375 C122.49782956 25.23861278 123.62217046 23.10302788 124.74697876 20.96768188 C125.44311543 19.6448798 126.13789149 18.32136021 126.8309021 16.99691772 C129.82166396 11.29237269 132.91404151 5.65759056 136 0 C151.18 0 166.36 0 182 0 C177.20214619 9.59570763 172.41459151 19.13514481 167.3125 28.5625 C166.72017578 29.66021729 166.12785156 30.75793457 165.51757812 31.88891602 C160.44038848 41.26193036 155.21785553 50.54886474 149.9375 59.80859375 C146.88763905 65.16742961 143.93525311 70.57771837 141 76 C134.65119323 76.25546537 128.3037287 76.42944319 121.95092773 76.54931641 C119.7944996 76.59932708 117.63840578 76.66736342 115.4831543 76.75439453 C95.26591421 77.54979625 95.26591421 77.54979625 88.34765625 71.23046875 C86.87395478 69.50762375 85.4232771 67.76473035 84 66 C82.28321111 64.52299555 80.53621051 63.07974936 78.75 61.6875 C74.31730537 58.10603407 69.9860239 54.42752394 65.6875 50.6875 C64.74148926 49.86511841 64.74148926 49.86511841 63.77636719 49.02612305 C62.49312902 47.91005812 61.21008942 46.79376484 59.92724609 45.67724609 C56.78926423 42.94631939 53.64840689 40.21890437 50.5 37.5 C49.94916748 37.02006592 49.39833496 36.54013184 48.83081055 36.0456543 C45.04272318 32.78077391 41.1032049 29.85980948 37 27 C36.63841797 28.24136719 36.63841797 28.24136719 36.26953125 29.5078125 C34.78987102 33.57801634 32.83536964 37.12690615 30.6875 40.875 C29.79547523 42.45363695 28.90493362 44.0331126 28.015625 45.61328125 C27.53544922 46.46615723 27.05527344 47.3190332 26.56054688 48.19775391 C23.0379015 54.52330516 19.62947195 60.91206299 16.20385742 67.29052734 C15.67123291 68.27875488 15.1386084 69.26698242 14.58984375 70.28515625 C14.11409912 71.17082275 13.63835449 72.05648926 13.14819336 72.96899414 C12 75 12 75 11 76 C9.57908291 76.11367101 8.15264438 76.159526 6.72729492 76.17700195 C5.36534248 76.19625481 5.36534248 76.19625481 3.97587585 76.21589661 C2.98739151 76.22328354 1.99890717 76.23067047 0.98046875 76.23828125 C-0.02964767 76.246353 -1.0397641 76.25442474 -2.08049011 76.26274109 C-4.22332025 76.27660061 -6.36617263 76.28731436 -8.5090332 76.29516602 C-11.7883488 76.31237327 -15.06665517 76.35624248 -18.34570312 76.40039062 C-20.42447173 76.41051747 -22.50324893 76.4190336 -24.58203125 76.42578125 C-26.05564873 76.45204338 -26.05564873 76.45204338 -27.55903625 76.47883606 C-34.40215442 76.4570141 -34.40215442 76.4570141 -37.65112305 73.97338867 C-38.31881714 72.99656128 -38.31881714 72.99656128 -39 72 C-32.25 68 -32.25 68 -30 68 C-29.60518433 66.95561768 -29.60518433 66.95561768 -29.20239258 65.89013672 C-27.88979785 62.73511206 -26.36733422 59.77447772 -24.76171875 56.7578125 C-24.44427704 56.1606694 -24.12683533 55.56352631 -23.79977417 54.94828796 C-22.76536758 53.00556494 -21.72667635 51.06517529 -20.6875 49.125 C-20.3342868 48.46325775 -19.98107361 47.8015155 -19.61715698 47.11972046 C-14.1955427 36.96554646 -8.63838531 26.89938351 -2.89916992 16.92041016 C-2.1466394 15.6082251 -2.1466394 15.6082251 -1.37890625 14.26953125 C-0.9413501 13.51260986 -0.50379395 12.75568848 -0.05297852 11.97583008 C1.81259822 8.47522434 2.06912506 7.27189189 1.0625 3.3125 C0.711875 2.219375 0.36125 1.12625 0 0 Z " fill="#FDFDFD" transform="translate(44,14)"/>
<path d="M0 0 C60.06 0 120.12 0 182 0 C178.87027731 2.50377815 176.08264001 4.68242144 172.7421875 6.76953125 C171.95658447 7.26308105 171.17098145 7.75663086 170.36157227 8.26513672 C169.54100342 8.7757666 168.72043457 9.28639648 167.875 9.8125 C161.09657849 14.01031553 161.09657849 14.01031553 154.44921875 18.41015625 C153.49660156 19.05855469 152.54398438 19.70695312 151.5625 20.375 C150.75941406 20.93960938 149.95632813 21.50421875 149.12890625 22.0859375 C148.42636719 22.38757813 147.72382813 22.68921875 147 23 C144.95958491 22.12960402 143.10527421 21.06107544 141.18820953 19.94887924 C135.92020662 16.99386303 131.62501311 16.41793322 125.64648438 16.45410156 C124.74798767 16.44376389 123.84949097 16.43342621 122.92376709 16.42277527 C119.98024208 16.39348717 117.03740888 16.39185106 114.09375 16.390625 C112.04250793 16.37563391 109.99127789 16.35890482 107.94006348 16.34051514 C102.56102933 16.29693387 97.182158 16.2768629 91.80297852 16.26177979 C86.30605479 16.24217549 80.80930603 16.20020918 75.3125 16.16015625 C64.54172076 16.08495399 53.77098087 16.03460203 43 16 C42.773125 16.639375 42.54625 17.27875 42.3125 17.9375 C40.52484327 22.10869904 38.20391044 26.0329612 36 30 C61.41 30 86.82 30 113 30 C111.02 32.31 109.04 34.62 107 37 C106.01733406 38.29992638 106.01733406 38.29992638 105.01481628 39.62611389 C101.844827 43.45022345 99.44526607 45.69106342 94.50405884 46.74728394 C90.9984406 46.93157053 87.58642587 46.9641261 84.08291054 46.83111382 C81.75627726 46.74443577 79.43512102 46.71646071 77.10697937 46.70289612 C71.33645754 46.65800901 65.56904571 46.51930924 59.80029297 46.37438965 C54.90769415 46.25411108 50.01778714 46.17414735 45.12373924 46.14949226 C42.83754431 46.12154318 40.55850588 46.03455351 38.27400208 45.94541931 C30.88305993 45.64698686 30.88305993 45.64698686 24.72616577 49.18069458 C22.5788281 52.67468725 21.29152942 56.12541174 20 60 C62.9 60 105.8 60 150 60 C143.29817833 67.81879195 143.29817833 67.81879195 139.6875 70.8125 C136.91088743 73.06201653 136.91088743 73.06201653 135 76 C112.75622204 76.09335743 90.51247628 76.16393702 68.26854229 76.20724869 C57.94076179 76.22789176 47.61310287 76.25604564 37.28540039 76.30175781 C28.28589973 76.34157222 19.2864871 76.36742011 10.28690082 76.37635398 C5.51972072 76.3815779 0.75279251 76.39389204 -4.01430702 76.42292023 C-8.49830886 76.45000418 -12.98195426 76.4584593 -17.46603012 76.45243073 C-19.1144358 76.45353412 -20.76285301 76.46152983 -22.41118813 76.4768219 C-24.65703948 76.49664096 -26.90153429 76.49197011 -29.14741516 76.48101807 C-30.40566258 76.48470524 -31.66391001 76.48839241 -32.96028614 76.49219131 C-36 76 -36 76 -37.92828655 73.96993637 C-38.28195199 73.31985737 -38.63561743 72.66977837 -39 72 C-38.44022461 71.72857178 -37.88044922 71.45714355 -37.30371094 71.17749023 C-29.33266569 66.68769412 -26.14582012 59.95985498 -22.25 52.0625 C-21.2215495 50.04400023 -20.18486716 48.02986233 -19.14797974 46.01568604 C-18.45033266 44.6588053 -17.75540422 43.30052333 -17.0632019 41.94085693 C-13.76724512 35.47850647 -10.2318224 29.16950998 -6.625 22.875 C-5.57512794 21.03928714 -4.52561498 19.20336884 -3.4765625 17.3671875 C-3.04424316 16.61550293 -2.61192383 15.86381836 -2.16650391 15.08935547 C1.4137888 8.67660014 0.9530107 8.57709627 0 0 Z " fill="#FDFDFD" transform="translate(234,14)"/>
<path d="M0 0 C60.06 0 120.12 0 182 0 C179.1383379 2.8616621 177.38341948 4.56732713 174.09375 6.515625 C173.35495605 6.95865967 172.61616211 7.40169434 171.85498047 7.8581543 C171.07783691 8.31746338 170.30069336 8.77677246 169.5 9.25 C162.18778149 13.63836662 155.03954743 18.18274107 148 23 C146.02754821 22.03214605 144.0876678 21.05101714 142.18820953 19.94565201 C136.90536136 16.97515478 132.64186021 16.44220689 126.64648438 16.54589844 C125.74798767 16.54531433 124.84949097 16.54473022 123.92376709 16.54412842 C120.98002286 16.54689551 118.03731539 16.57792198 115.09375 16.609375 C113.04252678 16.61684229 110.9912964 16.62253291 108.94006348 16.62652588 C103.56083217 16.64174374 98.182038 16.68099242 92.80297852 16.7253418 C87.30621248 16.7663776 81.80937531 16.78455462 76.3125 16.8046875 C65.5414754 16.84749038 54.77077416 16.91569502 44 17 C40.535 23.435 40.535 23.435 37 30 C62.41 30 87.82 30 114 30 C112.02 32.31 110.04 34.62 108 37 C106.91442307 38.29761513 106.91442307 38.29761513 105.80691528 39.6214447 C101.10458118 44.56641383 97.18659159 46.77684259 90.34716797 47.02172852 C87.39130197 47.05387539 84.44635961 46.97217293 81.4921875 46.87890625 C79.91467955 46.86208735 78.33712408 46.8492917 76.759552 46.84031677 C72.63849501 46.80620694 68.52036449 46.7180367 64.40045166 46.61798096 C60.18403708 46.5253517 55.96714217 46.48469039 51.75 46.43945312 C43.4986677 46.34338123 35.24969943 46.19010356 27 46 C26.773125 46.639375 26.54625 47.27875 26.3125 47.9375 C24.52484327 52.10869904 22.20391044 56.0329612 20 60 C63.23 60 106.46 60 151 60 C144.26358149 67.85915493 144.26358149 67.85915493 140.75 70.8125 C138.75778046 72.49970918 136.84716362 74.15283638 135 76 C132.11012459 76.25726891 132.11012459 76.25726891 128.33255005 76.26742554 C127.63945956 76.27195665 126.94636907 76.27648776 126.23227584 76.28115618 C123.89843607 76.29386609 121.56482769 76.29217561 119.23095703 76.29052734 C117.56229347 76.29650852 115.89363269 76.30331311 114.22497559 76.31088257 C109.68363325 76.32859228 105.14236621 76.33324005 100.60099268 76.33451414 C96.81362096 76.33641018 93.02626691 76.34376437 89.23890197 76.35085833 C80.3049295 76.36715901 71.37099735 76.37202578 62.43701172 76.37060547 C53.2131633 76.36940379 43.9895488 76.39050689 34.76575959 76.4220928 C26.85403372 76.44822282 18.94238439 76.45897413 11.03061569 76.45769465 C6.30202579 76.45718402 1.57364362 76.4629225 -3.15490341 76.48405075 C-7.60203679 76.50337799 -12.04876314 76.50359565 -16.49591064 76.48901749 C-18.12937131 76.48692136 -19.76285708 76.49167795 -21.39627457 76.5037384 C-23.62419284 76.51912452 -25.85069603 76.50992867 -28.07858276 76.49447632 C-29.94961324 76.49611062 -29.94961324 76.49611062 -31.85844231 76.49777794 C-35.5431902 75.91393184 -36.71335008 74.87265448 -39 72 C-38.43442383 71.78843262 -37.86884766 71.57686523 -37.28613281 71.35888672 C-29.2484988 67.72697968 -26.48663226 61.76021011 -22.75 54.125 C-22.11323634 52.8725923 -21.47346285 51.62171071 -20.83081055 50.37231445 C-19.84852008 48.46248141 -18.86778836 46.55207914 -17.89604187 44.63685608 C-14.71852944 38.38237245 -11.29438886 32.27730158 -7.8125 26.1875 C-7.28430664 25.2588916 -6.75611328 24.3302832 -6.21191406 23.37353516 C-5.71530273 22.50132324 -5.21869141 21.62911133 -4.70703125 20.73046875 C-4.24530518 19.91924561 -3.7835791 19.10802246 -3.30786133 18.2722168 C-2.46647249 16.81042738 -1.61304085 15.35546952 -0.74487305 13.90942383 C1.47305256 10.37328664 1.47305256 10.37328664 1.8125 6.3125 C1.544375 5.549375 1.27625 4.78625 1 4 C0.505 2.02 0.505 2.02 0 0 Z " fill="#FDFDFD" transform="translate(1396,14)"/>
<path d="M0 0 C6.49140637 -0.22986476 12.98174959 -0.38648563 19.47631836 -0.49438477 C21.6811443 -0.53940097 23.88570527 -0.60063744 26.08959961 -0.67895508 C46.76499888 -1.39480393 46.76499888 -1.39480393 53.6875 4.2890625 C55.15085832 5.83530635 56.5901051 7.40485613 58 9 C59.70099393 10.3488118 61.42704648 11.66727286 63.1875 12.9375 C65.41796875 14.58984375 65.41796875 14.58984375 67 16 C67 16.66 67 17.32 67 18 C76.12256555 14.15221397 85.08185886 10.05601409 93.9375 5.625 C94.81954102 5.18430176 95.70158203 4.74360352 96.61035156 4.28955078 C100.55716565 2.51437154 100.55716565 2.51437154 104 0 C106.02494231 -0.09409479 108.0531987 -0.11743122 110.08032227 -0.11352539 C112.03223228 -0.11341209 112.03223228 -0.11341209 114.02357483 -0.11329651 C115.45451902 -0.10818909 116.88546282 -0.10297308 118.31640625 -0.09765625 C119.7722926 -0.09579203 121.22817957 -0.09436815 122.68406677 -0.09336853 C126.52279379 -0.08954365 130.36148319 -0.07971364 134.20019531 -0.06866455 C138.11457816 -0.05844978 142.02896706 -0.05387077 145.94335938 -0.04882812 C153.62892343 -0.03809134 161.31445645 -0.02101529 169 0 C165.91479374 2.36562037 162.85074952 4.22676516 159.390625 6.01171875 C158.25850586 6.59711426 157.12638672 7.18250977 155.95996094 7.78564453 C154.72339661 8.41977056 153.48674051 9.05371765 152.25 9.6875 C150.96901772 10.34738129 149.68809432 11.0073769 148.40722656 11.66748047 C137.22092682 17.42034601 125.97216759 23.04871048 114.70019531 28.6315918 C102.83939446 33.24722609 102.83939446 33.24722609 94 41 C94.598125 41.28875 95.19625 41.5775 95.8125 41.875 C98 43 98 43 101 45 C101 45.66 101 46.32 101 47 C101.52464844 47.2165625 102.04929687 47.433125 102.58984375 47.65625 C105.946899 49.52793072 108.67171391 51.98316262 111.5625 54.5 C116.12421641 58.44897412 116.12421641 58.44897412 121 62 C121 62.66 121 63.32 121 64 C121.54140625 64.23589844 122.0828125 64.47179687 122.640625 64.71484375 C125.64418186 66.35088714 128.1117092 68.38835295 130.75 70.5625 C131.73484375 71.36816406 132.7196875 72.17382812 133.734375 73.00390625 C134.85585938 73.99197266 134.85585938 73.99197266 136 75 C136 75.33 136 75.66 136 76 C129.65119323 76.25546537 123.3037287 76.42944319 116.95092773 76.54931641 C114.7944996 76.59932708 112.63840578 76.66736342 110.4831543 76.75439453 C90.26575879 77.54980236 90.26575879 77.54980236 83.3984375 71.2734375 C81.89457415 69.54778301 80.42251879 67.79330106 79 66 C77.89533176 65.00489178 76.76364451 64.03753716 75.58984375 63.125 C68.22222222 57.22222222 68.22222222 57.22222222 66 55 C60.89175801 55.24278717 56.33390759 58.15239681 51.875 60.4375 C51.10285156 60.82615234 50.33070313 61.21480469 49.53515625 61.61523438 C48.71660156 62.02966797 47.89804687 62.44410156 47.0546875 62.87109375 C46.12277588 63.32806641 45.19086426 63.78503906 44.23071289 64.25585938 C41.75012897 65.59503353 39.57050612 66.96074868 37.26733398 68.55664062 C22.6253948 78.15229909 7.36473907 77.19665467 -9.43615723 76.68664551 C-13.23095038 76.58273776 -17.02644797 76.53834097 -20.82226562 76.48828125 C-28.21671603 76.38231561 -35.60776263 76.21259655 -43 76 C-41.66993596 73.33987192 -40.36653129 73.05789227 -37.6796875 71.8203125 C-36.76324463 71.39210205 -35.84680176 70.9638916 -34.90258789 70.52270508 C-33.40393188 69.83084106 -33.40393188 69.83084106 -31.875 69.125 C-23.50546585 65.19700533 -15.24205393 61.12240855 -7.0625 56.8125 C1.23013456 52.44623645 9.55668252 48.17369585 17.95654297 44.01806641 C20.28014885 42.86042763 22.59534773 41.68684639 24.91015625 40.51171875 C25.73668701 40.09365967 26.56321777 39.67560059 27.41479492 39.24487305 C29.02455308 38.43032935 30.63285324 37.61289623 32.23950195 36.79223633 C37.77522617 34 37.77522617 34 40 34 C36.25715939 30.10857782 32.30097209 26.7137834 28.0625 23.375 C27.0871228 22.60047485 27.0871228 22.60047485 26.09204102 21.81030273 C20.99280303 17.76650418 15.87573767 13.74467243 10.74438477 9.74169922 C7.10211038 6.8942722 3.49699061 4.02371369 0 1 C0 0.67 0 0.34 0 0 Z " fill="#FD0000" transform="translate(418,14)"/>
<path d="M0 0 C60.06 0 120.12 0 182 0 C179.61577394 2.38422606 177.79780289 3.89241083 175.0078125 5.63671875 C174.22607666 6.12833496 173.44434082 6.61995117 172.63891602 7.12646484 C171.39452759 7.89917725 171.39452759 7.89917725 170.125 8.6875 C169.27671631 9.21553223 168.42843262 9.74356445 167.55444336 10.28759766 C165.84171608 11.35361855 164.12842372 12.41873213 162.41455078 13.48291016 C160.25497641 14.83979541 158.12135743 16.22695506 155.99609375 17.63671875 C155.40876465 18.01932861 154.82143555 18.40193848 154.21630859 18.79614258 C152.66056646 19.81102662 151.11318337 20.83869163 149.56640625 21.8671875 C148.71949219 22.24101563 147.87257813 22.61484375 147 23 C145.06868744 22.20148087 145.06868744 22.20148087 143 21 C137.05148388 17.54893383 132.51957805 16.41252137 125.64648438 16.45410156 C124.74798767 16.44376389 123.84949097 16.43342621 122.92376709 16.42277527 C119.98024208 16.39348717 117.03740888 16.39185106 114.09375 16.390625 C112.04250793 16.37563391 109.99127789 16.35890482 107.94006348 16.34051514 C102.56102933 16.29693387 97.182158 16.2768629 91.80297852 16.26177979 C86.30605479 16.24217549 80.80930603 16.20020918 75.3125 16.16015625 C64.54172076 16.08495399 53.77098087 16.03460203 43 16 C42.70301208 16.92431824 42.40602417 17.84863647 42.10003662 18.80096436 C40.89290546 22.31144349 39.31697298 25.33308392 37.515625 28.578125 C37.17754822 29.18960388 36.83947144 29.80108276 36.4911499 30.43109131 C35.77738529 31.71985691 35.06121729 33.00729408 34.34277344 34.29345703 C33.26232694 36.22792938 32.18910278 38.16625863 31.1171875 40.10546875 C27.20497445 47.15740253 23.15255657 54.07907239 19 61 C59.92 61 100.84 61 143 61 C141.60854034 65.17437899 140.49553763 68.19196096 138.375 71.875 C137.70597656 73.04675781 137.70597656 73.04675781 137.0234375 74.2421875 C136.68570312 74.82226562 136.34796875 75.40234375 136 76 C115.9727082 76.02334151 95.94541915 76.04098535 75.91811657 76.05181217 C66.61947869 76.05697246 57.32084926 76.0640101 48.0222168 76.07543945 C39.919258 76.08539442 31.81630532 76.09185537 23.71334058 76.09408849 C19.42134012 76.09539421 15.12935715 76.09847135 10.83736229 76.10573006 C6.7999501 76.11250307 2.76256267 76.11461433 -1.27485466 76.11310768 C-2.75876118 76.11338343 -4.24266851 76.11538097 -5.72657013 76.11920547 C-7.74864101 76.12416262 -9.77072508 76.12239289 -11.7928009 76.12025452 C-12.92568448 76.12117631 -14.05856806 76.1220981 -15.22578144 76.12304783 C-18 76 -18 76 -21 75 C-21 74.34 -21 73.68 -21 73 C-21.61875 72.773125 -22.2375 72.54625 -22.875 72.3125 C-25.74939757 70.5371368 -26.20186198 69.26511006 -27 66 C-26.81182386 58.88694201 -23.36399705 53.5258252 -19.9375 47.4375 C-19.34767334 46.36991455 -18.75784668 45.3023291 -18.15014648 44.20239258 C-13.26560269 35.38640302 -8.31069947 26.60326986 -3.18359375 17.92578125 C-2.62800781 16.96027344 -2.07242187 15.99476562 -1.5 15 C-0.77296875 13.7625 -0.77296875 13.7625 -0.03125 12.5 C1.79090104 8.08266414 1.13791767 4.5516707 0 0 Z " fill="#FCFCFC" transform="translate(1212,14)"/>
<path d="M0 0 C60.06 0 120.12 0 182 0 C178.63313794 2.69348965 175.55376672 5.0139458 171.9453125 7.27734375 C171.00042969 7.87353516 170.05554687 8.46972656 169.08203125 9.08398438 C168.10621094 9.69564453 167.13039063 10.30730469 166.125 10.9375 C164.18890396 12.15303833 162.25398159 13.37044834 160.3203125 14.58984375 C158.94601074 15.45391846 158.94601074 15.45391846 157.54394531 16.33544922 C155.29508267 17.80692192 153.18036659 19.362882 151.0546875 21.00390625 C148 23 148 23 145.93017578 22.71459961 C143.58908162 21.84786768 141.98604038 20.50457604 140 19 C135.44703535 16.65248311 131.19678109 16.65355811 126.18994141 16.58251953 C124.8743499 16.55316818 124.8743499 16.55316818 123.53218079 16.52322388 C120.63870235 16.46354465 117.74540642 16.4206192 114.8515625 16.3828125 C113.86092175 16.36966885 112.87028099 16.35652519 111.84962082 16.34298325 C106.60911517 16.2779069 101.36868916 16.228971 96.12792969 16.18994141 C91.79502333 16.15427158 87.46471039 16.08456718 83.1328125 15.98486328 C77.89418178 15.86444914 72.65795929 15.80299629 67.41801071 15.78359604 C65.42509252 15.76649039 63.43223858 15.72885787 61.44011307 15.6701088 C58.64684317 15.59214585 55.86294886 15.59020301 53.06884766 15.60595703 C52.25095261 15.56595581 51.43305756 15.52595459 50.59037781 15.48474121 C47.87948814 15.43696728 47.87948814 15.43696728 44 17 C41.69 20.96 39.38 24.92 37 29 C75.115 29.495 75.115 29.495 114 30 C107.26358149 37.85915493 107.26358149 37.85915493 103.75 40.8125 C101.75778046 42.49970918 99.84716362 44.15283638 98 46 C95.0640564 46.24050903 95.0640564 46.24050903 91.25537109 46.22705078 C90.21617775 46.22748886 90.21617775 46.22748886 89.1559906 46.22793579 C86.86167966 46.22654031 84.56769184 46.21096919 82.2734375 46.1953125 C80.68446022 46.19158314 79.09548064 46.1887358 77.50650024 46.18673706 C73.32085846 46.17909453 69.1353551 46.15944081 64.94976807 46.1373291 C60.68007276 46.11688396 56.41035513 46.1077382 52.140625 46.09765625 C43.76035309 46.07619543 35.38019375 46.04205211 27 46 C26.69896866 46.76818054 26.39793732 47.53636108 26.08778381 48.32781982 C24.90168431 51.24151604 23.49606849 53.93809753 21.99609375 56.703125 C21.42052734 57.7653125 20.84496094 58.8275 20.25195312 59.921875 C19.65318359 61.02015625 19.05441406 62.1184375 18.4375 63.25 C17.83486328 64.36375 17.23222656 65.4775 16.61132812 66.625 C12.13411632 74.86588368 12.13411632 74.86588368 11 76 C9.57908291 76.11367101 8.15264438 76.159526 6.72729492 76.17700195 C5.36534248 76.19625481 5.36534248 76.19625481 3.97587585 76.21589661 C2.98739151 76.22328354 1.99890717 76.23067047 0.98046875 76.23828125 C-0.02964767 76.246353 -1.0397641 76.25442474 -2.08049011 76.26274109 C-4.22332025 76.27660061 -6.36617263 76.28731436 -8.5090332 76.29516602 C-11.7883488 76.31237327 -15.06665517 76.35624248 -18.34570312 76.40039062 C-20.42447173 76.41051747 -22.50324893 76.4190336 -24.58203125 76.42578125 C-26.05564873 76.45204338 -26.05564873 76.45204338 -27.55903625 76.47883606 C-34.40215442 76.4570141 -34.40215442 76.4570141 -37.65112305 73.97338867 C-38.31881714 72.99656128 -38.31881714 72.99656128 -39 72 C-32.25 68 -32.25 68 -30 68 C-29.78601563 67.21625 -29.57203125 66.4325 -29.3515625 65.625 C-27.53781108 60.7603719 -24.97904901 56.48039331 -22.375 52 C-21.21126968 49.95702167 -20.04993606 47.91267682 -18.890625 45.8671875 C-18.26865234 44.76987305 -17.64667969 43.67255859 -17.00585938 42.54199219 C-16.68125732 41.96864136 -16.35665527 41.39529053 -16.0222168 40.80456543 C-15.32203406 39.56850125 -14.62098165 38.33292942 -13.91918945 37.09777832 C-11.65821747 33.1144091 -9.42401022 29.11768771 -7.21905518 25.10302734 C-6.49487447 23.79372479 -5.76250106 22.48891734 -5.02166748 21.18896484 C-3.97427089 19.34815423 -2.95725197 17.49329449 -1.9453125 15.6328125 C-1.35250488 14.56949707 -0.75969727 13.50618164 -0.14892578 12.41064453 C1.54804381 8.16589862 1.54804381 8.16589862 0 0 Z " fill="#FDFDFD" transform="translate(971,14)"/>
<path d="M0 0 C60.06 0 120.12 0 182 0 C178.64829152 2.68136678 175.56705751 5.01070724 171.98046875 7.27734375 C170.56991211 8.17163086 170.56991211 8.17163086 169.13085938 9.08398438 C168.15955078 9.69564453 167.18824219 10.30730469 166.1875 10.9375 C165.22779297 11.54529297 164.26808594 12.15308594 163.27929688 12.77929688 C161.39872537 13.96925577 159.5145367 15.15352088 157.62646484 16.33154297 C155.94937289 17.39691259 154.29078353 18.49238407 152.65869141 19.62548828 C151.96308105 20.10099121 151.2674707 20.57649414 150.55078125 21.06640625 C149.95563721 21.48994385 149.36049316 21.91348145 148.74731445 22.34985352 C147 23 147 23 145.1510458 22.17131424 C144.44120069 21.78478054 143.73135557 21.39824684 143 21 C136.72144414 17.74864688 131.68710382 16.41070071 124.62475586 16.45410156 C123.29142212 16.43859505 123.29142212 16.43859505 121.93115234 16.42277527 C119.02552701 16.39353902 116.12060406 16.39185218 113.21484375 16.390625 C111.18745104 16.37563039 109.16007049 16.35890057 107.13270569 16.34051514 C101.82108982 16.29697334 96.50963871 16.27687172 91.19787598 16.26177979 C85.76788647 16.24216116 80.33807365 16.20019652 74.90820312 16.16015625 C64.27219009 16.08499682 53.63621689 16.03461902 43 16 C42.62875 17.2684375 42.62875 17.2684375 42.25 18.5625 C41 22 41 22 37 29 C75.115 29.495 75.115 29.495 114 30 C111.26641489 33.41698139 109.22262991 35.84970021 106 38.5625 C103.90768361 40.33197851 102.04419096 41.94571811 100.31072998 44.07501221 C97.15114133 46.70715427 95.10935698 46.51695492 91.02832031 46.54589844 C89.98868889 46.56140495 89.98868889 46.56140495 88.92805481 46.57722473 C86.64450757 46.60664696 84.36184687 46.60815168 82.078125 46.609375 C80.4919872 46.62435717 78.90586501 46.6410844 77.31976318 46.65948486 C73.15064781 46.70316707 68.98174288 46.72315921 64.81243896 46.73822021 C60.55582227 46.7577883 56.29943294 46.79975859 52.04296875 46.83984375 C43.69537198 46.9151552 35.34786448 46.96544078 27 47 C26.55084229 47.84296631 26.10168457 48.68593262 25.63891602 49.55444336 C23.97650989 52.67325464 22.31173912 55.79079836 20.64624023 58.90795898 C19.9248878 60.25884945 19.20418245 61.61008564 18.48413086 62.96166992 C17.45074514 64.90113507 16.41506046 66.83935657 15.37890625 68.77734375 C15.05596085 69.38464828 14.73301544 69.99195282 14.40028381 70.61766052 C12.11387171 74.88612829 12.11387171 74.88612829 11 76 C9.52645652 76.09304018 8.04849409 76.11746265 6.57202148 76.11352539 C5.63112167 76.11344986 4.69022186 76.11337433 3.72080994 76.11329651 C2.69790359 76.10813522 1.67499725 76.10297394 0.62109375 76.09765625 C-0.42070541 76.0962413 -1.46250458 76.09482635 -2.53587341 76.09336853 C-5.87811094 76.0877508 -9.22028257 76.0751953 -12.5625 76.0625 C-14.82226466 76.05748728 -17.08203037 76.05292398 -19.34179688 76.04882812 C-24.89455391 76.03777561 -30.44727225 76.02102024 -36 76 C-36 75.34 -36 74.68 -36 74 C-36.99 73.67 -37.98 73.34 -39 73 C-37.04477499 70.61028054 -36.00112759 70.00029916 -32.9375 69.1875 C-31.4834375 68.5996875 -31.4834375 68.5996875 -30 68 C-29.26939889 66.02245949 -28.61095188 64.01771709 -28 62 C-27.1473926 60.24397192 -26.2498604 58.50916279 -25.3125 56.796875 C-24.78342041 55.82516357 -24.25434082 54.85345215 -23.70922852 53.85229492 C-22.8631604 52.31665894 -22.8631604 52.31665894 -22 50.75 C-21.41984131 49.68821533 -20.83968262 48.62643066 -20.24194336 47.5324707 C-17.11896479 41.82581623 -13.97422665 36.13113103 -10.81567383 30.4440918 C-9.9891881 28.95583783 -9.16475875 27.46643977 -8.3425293 25.97583008 C-6.62158484 22.86449171 -4.87564619 19.79731307 -3.015625 16.765625 C-2.45359375 15.83234375 -1.8915625 14.8990625 -1.3125 13.9375 C-0.59513672 12.80634766 -0.59513672 12.80634766 0.13671875 11.65234375 C1.51844122 8.0269117 1.51844122 8.0269117 0 0 Z " fill="#FDFDFD" transform="translate(788,14)"/>
<path d="M0 0 C1.17280014 0.00539291 1.17280014 0.00539291 2.36929321 0.01089478 C3.18873917 0.01074875 4.00818512 0.01060272 4.85246277 0.01045227 C7.57416385 0.01115164 10.29579737 0.01894515 13.01748657 0.02676392 C14.89935773 0.02862801 16.78122938 0.03005195 18.6631012 0.03105164 C23.62631561 0.0348775 28.58950096 0.04470836 33.55270386 0.05575562 C38.61322639 0.06596827 43.67375359 0.07054894 48.73428345 0.07559204 C58.67114521 0.08633057 68.60798535 0.10340781 78.54483032 0.12442017 C77.2412945 4.14301003 75.81318532 7.75769604 73.78701782 11.46817017 C73.24303345 12.46848267 72.69904907 13.46879517 72.13858032 14.49942017 C71.28779907 16.04629517 71.28779907 16.04629517 70.41983032 17.62442017 C69.87584595 18.62473267 69.33186157 19.62504517 68.77139282 20.65567017 C64.46600201 28.54218043 60.00442422 36.32013085 55.54483032 44.12442017 C27.49483032 44.12442017 -0.55516968 44.12442017 -29.45516968 44.12442017 C-28.00304747 40.49411464 -26.54705471 37.28568021 -24.69735718 33.87832642 C-24.15756226 32.88196167 -23.61776733 31.88559692 -23.06161499 30.85903931 C-22.49023804 29.81223999 -21.91886108 28.76544067 -21.33016968 27.68692017 C-20.74848022 26.61756226 -20.16679077 25.54820435 -19.56747437 24.44644165 C-6.24066731 0.01211418 -6.24066731 0.01211418 0 0 Z " fill="#030303" transform="translate(647.4551696777344,29.875579833984375)"/>
<path d="M0 0 C17.16 0 34.32 0 52 0 C46.98213505 10.03572991 41.94327402 20.00373196 36.625 29.875 C35.96994568 31.09389932 35.31491678 32.31281229 34.65991211 33.53173828 C26.97901061 47.80710149 19.05303119 61.93224133 11 76 C4.5222714 76.10140493 -1.95525261 76.17146717 -8.43359375 76.21972656 C-10.6374476 76.23984419 -12.84124807 76.26714172 -15.04492188 76.30175781 C-18.21237356 76.35026833 -21.37911968 76.37296736 -24.546875 76.390625 C-26.02519806 76.42159271 -26.02519806 76.42159271 -27.53338623 76.45318604 C-34.40307207 76.45544041 -34.40307207 76.45544041 -37.65332031 73.97558594 C-38.09772461 73.32364258 -38.54212891 72.67169922 -39 72 C-32.25 68 -32.25 68 -30 68 C-29.73896484 67.30737061 -29.47792969 66.61474121 -29.20898438 65.90112305 C-27.86662395 62.67994595 -26.30059356 59.66028684 -24.65625 56.58203125 C-24.33074158 55.97144363 -24.00523315 55.36085602 -23.66986084 54.73176575 C-22.61599192 52.75719248 -21.55815149 50.78478111 -20.5 48.8125 C-19.7730454 47.45299784 -19.04615767 46.09345992 -18.31933594 44.73388672 C-13.98657146 36.6411171 -9.61030963 28.57448222 -5.09570312 20.58129883 C-4.39506579 19.33760421 -3.70187538 18.08967352 -3.01757812 16.83691406 C-2.29993748 15.54144184 -1.55057232 14.26329815 -0.77929688 12.99902344 C-0.39322266 12.32645508 -0.00714844 11.65388672 0.390625 10.9609375 C0.92478027 10.07220947 0.92478027 10.07220947 1.46972656 9.16552734 C2.3906698 6.17875458 2.3906698 6.17875458 0 0 Z " fill="#FCFCFC" transform="translate(1154,14)"/>
</svg>
